solid OpenSCAD_Model
  facet normal -1 0 0
    outer loop
      vertex -40 -16 -4
      vertex -40 16 -2
      vertex -40 16 -4
    endloop
  endfacet
  facet normal -1 -0 0
    outer loop
      vertex -40 16 -2
      vertex -40 -16 -4
      vertex -40 -16 -2
    endloop
  endfacet
  facet normal 0 0 1
    outer loop
      vertex 40 16 -2
      vertex 31.5 10.5 -2
      vertex 40 -16 -2
    endloop
  endfacet
  facet normal 0 0 1
    outer loop
      vertex 40 16 -2
      vertex -9.5 10.5 -2
      vertex 31.5 10.5 -2
    endloop
  endfacet
  facet normal 0 0 1
    outer loop
      vertex -9.5 10.5 -2
      vertex -40 16 -2
      vertex -9.5 -10.5 -2
    endloop
  endfacet
  facet normal -0 0 1
    outer loop
      vertex -40 16 -2
      vertex -9.5 10.5 -2
      vertex 40 16 -2
    endloop
  endfacet
  facet normal -0 0 1
    outer loop
      vertex 31.5 -10.5 -2
      vertex 40 -16 -2
      vertex 31.5 10.5 -2
    endloop
  endfacet
  facet normal -0 0 1
    outer loop
      vertex -9.5 -10.5 -2
      vertex 40 -16 -2
      vertex 31.5 -10.5 -2
    endloop
  endfacet
  facet normal 0 0 1
    outer loop
      vertex -9.5 -10.5 -2
      vertex -40 -16 -2
      vertex 40 -16 -2
    endloop
  endfacet
  facet normal 0 0 1
    outer loop
      vertex -40 -16 -2
      vertex -9.5 -10.5 -2
      vertex -40 16 -2
    endloop
  endfacet
  facet normal 1 -0 0
    outer loop
      vertex 40 -16 -2
      vertex 40 16 -34
      vertex 40 16 -2
    endloop
  endfacet
  facet normal 1 0 0
    outer loop
      vertex 40 16 -34
      vertex 40 -16 -2
      vertex 40 -16 -34
    endloop
  endfacet
  facet normal 0 1 0
    outer loop
      vertex 40 16 -2
      vertex 38 16 -4
      vertex -40 16 -2
    endloop
  endfacet
  facet normal 0 1 -0
    outer loop
      vertex 40 16 -34
      vertex 38 16 -4
      vertex 40 16 -2
    endloop
  endfacet
  facet normal 0 1 0
    outer loop
      vertex 38 16 -4
      vertex 40 16 -34
      vertex 38 16 -34
    endloop
  endfacet
  facet normal 0 1 0
    outer loop
      vertex -40 16 -2
      vertex 38 16 -4
      vertex -40 16 -4
    endloop
  endfacet
  facet normal 0 0 -1
    outer loop
      vertex 38 -16 -34
      vertex 40 16 -34
      vertex 40 -16 -34
    endloop
  endfacet
  facet normal -0 0 -1
    outer loop
      vertex 40 16 -34
      vertex 38 -16 -34
      vertex 38 16 -34
    endloop
  endfacet
  facet normal 0 -1 0
    outer loop
      vertex 38 -16 -4
      vertex -40 -16 -2
      vertex -40 -16 -4
    endloop
  endfacet
  facet normal 0 -1 0
    outer loop
      vertex -40 -16 -2
      vertex 38 -16 -4
      vertex 40 -16 -2
    endloop
  endfacet
  facet normal 0 -1 0
    outer loop
      vertex 40 -16 -34
      vertex 38 -16 -4
      vertex 38 -16 -34
    endloop
  endfacet
  facet normal 0 -1 0
    outer loop
      vertex 38 -16 -4
      vertex 40 -16 -34
      vertex 40 -16 -2
    endloop
  endfacet
  facet normal 0 0 -1
    outer loop
      vertex 38 -16 -4
      vertex 31.5 -10.5 -4
      vertex 38 16 -4
    endloop
  endfacet
  facet normal 0 0 -1
    outer loop
      vertex 38 -16 -4
      vertex -9.5 -10.5 -4
      vertex 31.5 -10.5 -4
    endloop
  endfacet
  facet normal -0 0 -1
    outer loop
      vertex -9.5 -10.5 -4
      vertex -40 -16 -4
      vertex -9.5 10.5 -4
    endloop
  endfacet
  facet normal 0 0 -1
    outer loop
      vertex -40 -16 -4
      vertex -9.5 -10.5 -4
      vertex 38 -16 -4
    endloop
  endfacet
  facet normal 0 0 -1
    outer loop
      vertex 31.5 10.5 -4
      vertex 38 16 -4
      vertex 31.5 -10.5 -4
    endloop
  endfacet
  facet normal 0 0 -1
    outer loop
      vertex -9.5 10.5 -4
      vertex 38 16 -4
      vertex 31.5 10.5 -4
    endloop
  endfacet
  facet normal 0 0 -1
    outer loop
      vertex -9.5 10.5 -4
      vertex -40 16 -4
      vertex 38 16 -4
    endloop
  endfacet
  facet normal 0 0 -1
    outer loop
      vertex -40 16 -4
      vertex -9.5 10.5 -4
      vertex -40 -16 -4
    endloop
  endfacet
  facet normal -1 0 0
    outer loop
      vertex 38 -16 -34
      vertex 38 16 -4
      vertex 38 16 -34
    endloop
  endfacet
  facet normal -1 -0 0
    outer loop
      vertex 38 16 -4
      vertex 38 -16 -34
      vertex 38 -16 -4
    endloop
  endfacet
  facet normal 1 -0 0
    outer loop
      vertex -9.5 -10.5 -2
      vertex -9.5 10.5 -4
      vertex -9.5 10.5 -2
    endloop
  endfacet
  facet normal 1 0 0
    outer loop
      vertex -9.5 10.5 -4
      vertex -9.5 -10.5 -2
      vertex -9.5 -10.5 -4
    endloop
  endfacet
  facet normal -1 0 0
    outer loop
      vertex 31.5 -10.5 -4
      vertex 31.5 10.5 -2
      vertex 31.5 10.5 -4
    endloop
  endfacet
  facet normal -1 -0 0
    outer loop
      vertex 31.5 10.5 -2
      vertex 31.5 -10.5 -4
      vertex 31.5 -10.5 -2
    endloop
  endfacet
  facet normal 0 1 -0
    outer loop
      vertex 31.5 -10.5 -4
      vertex -9.5 -10.5 -2
      vertex 31.5 -10.5 -2
    endloop
  endfacet
  facet normal 0 1 0
    outer loop
      vertex -9.5 -10.5 -2
      vertex 31.5 -10.5 -4
      vertex -9.5 -10.5 -4
    endloop
  endfacet
  facet normal 0 -1 0
    outer loop
      vertex -9.5 10.5 -4
      vertex 31.5 10.5 -2
      vertex -9.5 10.5 -2
    endloop
  endfacet
  facet normal 0 -1 -0
    outer loop
      vertex 31.5 10.5 -2
      vertex -9.5 10.5 -4
      vertex 31.5 10.5 -4
    endloop
  endfacet
endsolid OpenSCAD_Model
